<svg viewBox="0 0 210 192.06" xmlns:xlink="http://www.w3.org/1999/xlink" xmlns="http://www.w3.org/2000/svg"><defs><style>.cls-1{fill:none;}.cls-2{clip-path:url(#clip-path);}.cls-3{fill:url(#未命名的渐变_27);}.cls-4{fill:url(#未命名的渐变_27-2);}.cls-5{fill:url(#未命名的渐变_27-3);}.cls-6{fill:url(#未命名的渐变_27-4);}.cls-7{fill:#fff;}.cls-8{fill:url(#未命名的渐变_25);}.cls-9{fill:url(#未命名的渐变_22);}.cls-10{fill:url(#未命名的渐变_22-2);}.cls-11{fill:url(#未命名的渐变_22-3);}.cls-12{fill:url(#未命名的渐变_27-5);}.cls-13{fill:url(#未命名的渐变_27-6);}.cls-14{fill:url(#未命名的渐变_25-2);}.cls-15{fill:#f2f2f2;}.cls-16{fill:#bfbfbf;}.cls-17{fill:#f7f7f7;}</style><clipPath id="clip-path"><rect height="192" width="210" y="0.06" class="cls-1"></rect></clipPath><linearGradient gradientUnits="userSpaceOnUse" y2="172.01" x2="168.02" y1="172.01" x1="2.28" id="未命名的渐变_27"><stop stop-color="#ebebeb" offset="0"></stop><stop stop-color="#f7f7f7" offset="0.99"></stop></linearGradient><linearGradient xlink:href="#未命名的渐变_27" gradientTransform="translate(-62.2 311.9) rotate(-90)" y2="187.05" x2="207.72" y1="187.05" x1="41.98" id="未命名的渐变_27-2"></linearGradient><linearGradient xlink:href="#未命名的渐变_27" gradientTransform="translate(-111.25 247.81) rotate(-90)" y2="180.03" x2="68.28" y1="179.03" x1="68.28" id="未命名的渐变_27-3"></linearGradient><linearGradient xlink:href="#未命名的渐变_27" gradientTransform="translate(-10.98 342.06) rotate(-90)" y2="177.02" x2="165.54" y1="176.02" x1="165.54" id="未命名的渐变_27-4"></linearGradient><linearGradient gradientUnits="userSpaceOnUse" y2="48.5" x2="104.91" y1="147.54" x1="104.91" id="未命名的渐变_25"><stop stop-color="#e2e2e2" offset="0"></stop><stop stop-color="#f7f7f7" offset="0.99"></stop></linearGradient><linearGradient gradientUnits="userSpaceOnUse" y2="116.11" x2="148.17" y1="116.11" x1="110.08" id="未命名的渐变_22"><stop stop-color="#ccc" offset="0"></stop><stop stop-color="#ebebeb" offset="0.99"></stop></linearGradient><linearGradient xlink:href="#未命名的渐变_22" y2="36.67" x2="156.62" y1="36.67" x1="111.91" id="未命名的渐变_22-2"></linearGradient><linearGradient xlink:href="#未命名的渐变_22" gradientTransform="translate(-4.04 5.15) rotate(-2.39)" y2="99.73" x2="128.06" y1="99.73" x1="115.32" id="未命名的渐变_22-3"></linearGradient><linearGradient xlink:href="#未命名的渐变_27" y2="43.67" x2="131.89" y1="43.67" x1="71.22" id="未命名的渐变_27-5"></linearGradient><linearGradient xlink:href="#未命名的渐变_27" y2="96.72" x2="132.19" y1="96.72" x1="79" id="未命名的渐变_27-6"></linearGradient><linearGradient xlink:href="#未命名的渐变_25" y2="73.95" x2="169.59" y1="73.95" x1="110.67" id="未命名的渐变_25-2"></linearGradient></defs><title>资源 740</title><g id="图层_2"><g id="图层_1-2"><g class="cls-2"><rect rx="2" height="4.01" width="165.74" y="170.01" x="2.28" class="cls-3"></rect><rect transform="translate(311.9 62.2) rotate(90)" rx="5" height="165.74" width="10.03" y="104.18" x="119.84" class="cls-4"></rect><rect transform="translate(247.81 111.25) rotate(90)" rx="0.5" height="80.39" width="1" y="139.34" x="67.78" class="cls-5"></rect><rect transform="translate(342.06 10.98) rotate(90)" rx="0.5" height="80.39" width="1" y="136.33" x="165.04" class="cls-6"></rect><path d="M157,84s1.41-4.41,8.14-2.58a5.53,5.53,0,0,1,9.39-.45,5.3,5.3,0,0,1,6,3Z" class="cls-7"></path><polygon points="174.36 147.54 155.37 147.54 155.37 49.5 118.4 49.5 118.4 147.54 110.41 147.54 110.41 123.53 72.44 123.53 72.44 147.54 53.46 147.54 53.46 89.52 45.46 89.52 45.46 81.52 35.47 81.52 35.47 89.52 27.48 89.52 27.48 147.54 9.49 147.54 9.49 102.53 0 102.53 0 101.53 10.49 101.53 10.49 146.54 26.48 146.54 26.48 88.52 34.47 88.52 34.47 80.52 46.46 80.52 46.46 88.52 54.46 88.52 54.46 146.54 71.44 146.54 71.44 122.53 111.41 122.53 111.41 146.54 117.4 146.54 117.4 48.5 156.37 48.5 156.37 146.54 173.36 146.54 173.36 102.53 209.83 102.53 209.83 103.53 174.36 103.53 174.36 147.54" class="cls-8"></polygon><polygon points="142.43 121.28 148.17 112.8 139.75 106.46 110.08 110.74 112.79 125.77 142.43 121.28" class="cls-9"></polygon><polygon points="148.05 45.26 156.63 37.33 147.96 29.04 111.91 28.09 112 44.54 148.05 45.26" class="cls-10"></polygon><path transform="translate(4.25 -4.98) rotate(2.39)" d="M120.67,20h2.18a2,2,0,0,1,2,2v157.3a0,0,0,0,1,0,0h-6.21a0,0,0,0,1,0,0V22.09a2,2,0,0,1,2-2Z" class="cls-11"></path><polygon points="82.92 34.7 71.22 42.83 82.92 51.44 131.89 52.64 131.89 35.66 82.92 34.7" class="cls-12"></polygon><polygon points="89.67 86.47 79 93.97 88.65 103.19 131.16 106.97 132.19 90.02 89.67 86.47" class="cls-13"></polygon><polygon points="158.87 82.34 169.59 72.7 157.79 63.85 110.67 65.29 111.76 84.04 158.87 82.34" class="cls-14"></polygon><path d="M145.36,33.05c-1.39-2.62-4.53-1.75-6.41-.29-1.27,1,.33,2.88,1.59,1.9.55-.43,1.46-1.12,2.21-.8,1.09.45-.1,1.14-.6,1.45-1.22.73-2.47,1.67-2.41,3.25s2.51,1.81,2.46.22c0-1.15,2.12-1.75,2.8-2.58A2.79,2.79,0,0,0,145.36,33.05Z" class="cls-15"></path><path d="M141,41.13a1.24,1.24,0,0,0-.22,2.47A1.24,1.24,0,0,0,141,41.13Z" class="cls-15"></path><path d="M98.15,90.79c-1.39-2.62-4.54-1.75-6.42-.29-1.26,1,.34,2.87,1.59,1.9.55-.43,1.46-1.12,2.22-.81,1.09.46-.1,1.15-.61,1.45-1.22.74-2.46,1.68-2.41,3.25S95,98.1,95,96.51c0-1.14,2.12-1.74,2.8-2.57A2.81,2.81,0,0,0,98.15,90.79Z" class="cls-16"></path><path d="M93.24,98.87a1.24,1.24,0,0,0-.21,2.47C95.11,101.52,95.33,99.05,93.24,98.87Z" class="cls-16"></path><path d="M60.9,74s1.63-4.53,9.44-2.65c2.21-3.76,8.18-3.85,10.88-.45A6.45,6.45,0,0,1,88.15,74Z" class="cls-7"></path><polygon points="168.35 35.11 170.45 43.01 178.27 45.14 170.45 47.27 168.35 55.17 166.25 47.27 158.43 45.14 166.25 43.01 168.35 35.11" class="cls-17"></polygon><polygon points="194.13 0 197.5 12.64 210 16.05 197.5 19.45 194.13 32.1 190.77 19.45 178.27 16.05 190.77 12.64 194.13 0" class="cls-17"></polygon></g></g></g></svg>